<?xml version="1.0" encoding="utf-8"?>
<!-- Generator: Adobe Illustrator 23.0.0, SVG Export Plug-In . SVG Version: 6.00 Build 0)  -->
<svg version="1.1" id="Layer_1" xmlns="http://www.w3.org/2000/svg" xmlns:xlink="http://www.w3.org/1999/xlink" x="0px" y="0px"
	 viewBox="0 0 5000 3000" style="enable-background:new 0 0 5000 3000;" xml:space="preserve">
<style type="text/css">
	.st0{fill:url(#SVGID_1_);}
	.st1{fill:url(#SVGID_2_);}
	.st2{fill:url(#SVGID_3_);}
	.st3{fill:url(#SVGID_4_);}
	.st4{fill:url(#SVGID_5_);}
</style>
<linearGradient id="SVGID_1_" gradientUnits="userSpaceOnUse" x1="2267.688" y1="1655.959" x2="2821.2537" y2="1655.959">
	<stop  offset="0" style="stop-color:#DA1C5C"/>
	<stop  offset="0.5711" style="stop-color:#A01F62"/>
	<stop  offset="0.9966" style="stop-color:#9E1F63"/>
</linearGradient>
<path class="st0" d="M2795.79,1630.7c-9.68-12.83-21.26-24.28-32.51-35.85c-23.7-24.36-24.18-83.31-0.57-109.77
	c20.88,5,40.76,4.22,58.54-10.22c-18.59,1.73-37.08,6.53-55.15-1.59c-7.11-9.36,0.16-17.29,2.93-25.36
	c13.91-40.62,21.07-82.17,18.6-125.19c2.09-5.62,3.98-11.24,0.55-17.04c0,0,0,0,0,0c-2.25-63.12-14.53-121.91-73-167.51
	c8.71,56.95,9.94,108.54,4.43,160.18c-0.75,4.09-1.5,8.18-2.25,12.27l0,0c-20.57,106.82-78.73,192.52-151.39,270.23
	c-41.76,44.67-83.87,89.07-124.07,135.12c-63.13,72.32-109.95,153-118.64,251.21c-2,22.64-2.29,45.44-3.36,68.17
	c-16.8-44.41-15.03-89.45-6.52-134.73c11.22-59.72,38.32-112.79,69.14-164.29c21.98-27.73,42.74-56.4,66.24-83.04
	c-29.32,15.59-52.7,37.25-72.39,63.01c0,0,0,0,0.01,0c0,0-0.01,0-0.01,0c-63.91,77.23-107.74,163.02-108.66,265.64
	c-0.89,98.43,69.75,174.93,173.91,191.79c-64.19-47.73-89.4-113.21-85.68-190.83c3.18-66.28,45.77-104.24,111.61-102.2
	c21.41,0.66,41.73,5.88,61.51,13.48c20.32,7.81,39.88,18.29,60.78,23.72c55.46,14.41,100.11-2.3,89.78-73.69
	c-0.3-2.08-0.32-4.21-0.41-6.32c-1.36-30.45,4.18-36.46,35.33-37.81c11.69-0.51,20.6-2.46,11.53-16.96
	c-7-11.19-6.38-18.43,9.32-18.4c15.11,0.03,17.26-8.73,13.77-21.14c-1.71-6.08-3.3-12.22-4.42-18.42
	c-5.57-31-2.62-35.96,26.58-47.33c5.86-2.28,11.56-5.25,16.89-8.61C2805.03,1658.61,2807.95,1646.82,2795.79,1630.7z"/>
<g>
	<linearGradient id="SVGID_2_" gradientUnits="userSpaceOnUse" x1="2084.0923" y1="1056.8616" x2="2549.9351" y2="1056.8616">
		<stop  offset="0" style="stop-color:#DA1C5C"/>
		<stop  offset="0.5711" style="stop-color:#A01F62"/>
		<stop  offset="0.9966" style="stop-color:#9E1F63"/>
	</linearGradient>
	<path class="st1" d="M2345.96,1228.04c-10.82,24.62-1.6,44.6-3.85,72.46c-37.38-48.54-65.32-95.42-90.24-144.68
		c5.44,46.67,25.68,87.66,48.55,131.43c-26.15-4.7-33.63-29.11-56.78-43.48c6.11,14.56,9.9,23.58,13.77,32.82
		c-2.22,0.77-4.77,2.52-5.73,1.88c-88.28-58.94-155.14-133.64-166.21-244.04c-9.93-99.08,34.68-179.22,98.07-250.4
		c16.03-18,33.66-20.13,45.74,6.84c16.46,36.76,34.18,72.96,50.72,109.69c25.83,57.34,67.07,93.7,131.63,100.39
		c21.2,2.2,42.42,5.57,63.19,10.3c47.35,10.79,73.8,41.52,75.02,90.54c2.25,90.45-44.44,160.93-100.53,224.81
		c-24.95,28.41-57.42,18.39-77.07-15.58C2358.36,1287.03,2353.45,1260.29,2345.96,1228.04z"/>
	<linearGradient id="SVGID_3_" gradientUnits="userSpaceOnUse" x1="1807.8899" y1="1543.6285" x2="2631.2368" y2="1543.6285">
		<stop  offset="0" style="stop-color:#DA1C5C"/>
		<stop  offset="0.5711" style="stop-color:#A01F62"/>
		<stop  offset="0.9966" style="stop-color:#9E1F63"/>
	</linearGradient>
	<path class="st2" d="M2204.76,1413.21c-40.49,20.65-79.02,40.3-117.54,59.95c45.04-9.64,87.46-29.15,137.49-23.18
		c-15.3,20.35-41.63,27.34-50.39,54.75c22.34-10.97,37.28-27.07,58.47-32.5c32.56-8.36,41.23-1.96,40.88,31.31
		c-0.68,66.43-18.35,128.45-48.34,188.26c84.81-82.64,193.49-132.19,280.31-210.86c99.87-90.5,134.8-200.25,97.72-331.23
		c-1.93-6.82-3.42-13.79-4.6-20.78c-0.31-1.83,1.31-3.98,2.05-5.99c59.14,112.22,30,267.36-69.07,373.69
		c-49.8,53.45-111.3,92.24-167.81,137.27c-69.07,55.04-118.5,122.13-134.74,210.76c-12.38,67.55,15.84,101.17,83.28,98.87
		c-54.83,37.68-104.73,23.46-130.96-37.3c-23.05-53.41-18.01-105.48,18.78-180.28c-12.45,9.24-22.05,16.78-32.06,23.72
		c-52.29,36.22-123.29,24.63-161.52-26.62c-9.21-12.35-18.23-25.09-25.38-38.68c-25.83-49.09-66.43-71.14-121.34-71.89
		c-50.23-0.68-65.1-27.86-40.33-71.58c15.47-27.31,37.81-48.22,64.35-65.18C1965.11,1423.9,2107.15,1396.01,2204.76,1413.21z"/>
	<linearGradient id="SVGID_4_" gradientUnits="userSpaceOnUse" x1="1686.5795" y1="1280.833" x2="2221.2747" y2="1280.833">
		<stop  offset="0" style="stop-color:#DA1C5C"/>
		<stop  offset="0.5711" style="stop-color:#A01F62"/>
		<stop  offset="0.9966" style="stop-color:#9E1F63"/>
	</linearGradient>
	<path class="st3" d="M2183.5,1303.1c-5.38,18.23-16.28,3.93-21.38,1.66c-37.42-16.62-76.88-22.68-117.55-25.12
		c40.12,10.88,79.51,23.34,118.37,45.52c-22.25,11.7-43.12-3.72-67.11,4.04c46.38,10.81,90.02,19.07,123.55,44.58
		c3.14,6.54,2.15,8.31-1.31,8.15c-104.96-4.95-203.98,22.43-302.26,54.71c-44.07,14.48-89.48,24.33-136.11,20.89
		c-85.95-6.35-114.47-56.71-76.9-134.69c15.33-31.82,39.27-56,71.64-71.27c16.08-7.58,32.24-15.04,47.89-23.44
		c26.76-14.37,44.84-31.81,22.71-64.31c-13.64-20.03-2.62-32.37,15.52-42.08c51.7-27.65,103.89-21.27,154.16,1.18
		c86.09,38.44,145.6,107.58,202.89,181.62c-12.77,6.19-16.93-7.05-25.08-7.58c-27.62-8.32-48.45-31.13-77.22-36.98
		c-4.89-0.56-0.2,6.67-0.86,1.97c-0.28-1.99,0.75-2.7,2.97-1.83C2142.44,1269.85,2166.8,1280.6,2183.5,1303.1z"/>
	<linearGradient id="SVGID_5_" gradientUnits="userSpaceOnUse" x1="2238.7234" y1="1386.7864" x2="2367.168" y2="1386.7864">
		<stop  offset="0" style="stop-color:#DA1C5C"/>
		<stop  offset="0.5711" style="stop-color:#A01F62"/>
		<stop  offset="0.9966" style="stop-color:#9E1F63"/>
	</linearGradient>
	<path class="st4" d="M2292.51,1449.79c-38.37-6.96-59.79-37.27-52.31-74.04c6.81-33.5,40.88-57.94,72.78-52.2
		c32.66,5.87,58.46,40.89,53.59,72.73C2361.03,1432.53,2328.18,1456.26,2292.51,1449.79z"/>
</g>
</svg>
